<svg xmlns="http://www.w3.org/2000/svg"
 xmlns:xlink="http://www.w3.org/1999/xlink"
 width="19px" height="15px"  viewBox="0 0 19 15">
<path fill-rule="evenodd"  fill="#ffffff"
 d="M17.002014,2.8232422 C16.442932,3.0644531 15.841675,3.2265625 15.210388,3.2998047 C15.854675,2.9248047 16.34906,2.3330078 16.58197,1.625 C15.979248,1.9716797 15.311951,2.2236328 14.601196,2.359375 C14.032349,1.7714844 13.221619,1.4033203 12.324524,1.4033203 C10.601868,1.4033203 9.205261,2.758789 9.205261,4.4316406 C9.205261,4.6679688 9.232788,4.899414 9.28595,5.1210938 C6.6935425,4.995117 4.3948975,3.7890625 2.8564453,1.9570312 C2.5881348,2.4052734 2.434204,2.9248047 2.434204,3.4794922 C2.434204,4.5302734 2.9848633,5.4570312 3.8218384,6.0 C3.31073,5.9833984 2.8294067,5.8476562 2.4090576,5.6210938 C2.4087524,5.633789 2.4087524,5.645508 2.4087524,5.6591797 C2.4087524,7.1259766 3.4839478,8.349609 4.911072,8.62793 C4.649353,8.696289 4.3737183,8.734375 4.0891724,8.734375 C3.8880005,8.734375 3.692627,8.714844 3.5021973,8.6796875 C3.899292,9.8828125 5.0512085,10.7578125 6.4158936,10.78125 C5.3483887,11.59375 4.003601,12.078125 2.5419312,12.078125 C2.2902832,12.078125 2.0421143,12.063477 1.7979126,12.035156 C3.17865,12.894531 4.818115,13.396484 6.579529,13.396484 C12.317322,13.396484 15.454468,8.782227 15.454468,4.7822266 C15.454468,4.651367 15.451782,4.5195312 15.445801,4.390625 C16.055054,3.9638672 16.584106,3.4296875 17.002014,2.8232422 Z"/>
</svg>