<svg xmlns="http://www.w3.org/2000/svg"
 xmlns:xlink="http://www.w3.org/1999/xlink"
 width="10px" height="16px"  viewBox="0 0 10 16">
<path fill-rule="evenodd"  fill="#ffffff"
 d="M6.5581665,4.010742 C6.5581665,4.010742 8.208191,4.010742 8.208191,4.010742 C8.208191,4.010742 8.208191,1.5742188 8.208191,1.5742188 C8.208191,1.5742188 6.269043,1.5742188 6.269043,1.5742188 C6.269043,1.5742188 6.269043,1.5839844 6.269043,1.5839844 C3.920227,1.6660156 3.4378662,2.9873047 3.39563,4.375 C3.39563,4.375 3.3909912,4.375 3.3909912,4.375 C3.3909912,4.375 3.3909912,5.591797 3.3909912,5.591797 C3.3909912,5.591797 1.791687,5.591797 1.791687,5.591797 C1.791687,5.591797 1.791687,7.977539 1.791687,7.977539 C1.791687,7.977539 3.3909912,7.977539 3.3909912,7.977539 C3.3909912,7.977539 3.3909912,14.375 3.3909912,14.375 C3.3909912,14.375 5.8026733,14.375 5.8026733,14.375 C5.8026733,14.375 5.8026733,7.977539 5.8026733,7.977539 C5.8026733,7.977539 7.777649,7.977539 7.777649,7.977539 C7.777649,7.977539 8.158142,5.591797 8.158142,5.591797 C8.158142,5.591797 5.8026733,5.591797 5.8026733,5.591797 C5.8026733,5.591797 5.8026733,4.8564453 5.8026733,4.8564453 C5.8026733,4.3876953 6.1140137,4.010742 6.5581665,4.010742 Z"/>
</svg>