<svg xmlns="http://www.w3.org/2000/svg"
 xmlns:xlink="http://www.w3.org/1999/xlink"
 width="18px" height="18px"  viewBox="0 0 18 18">
<path fill-rule="evenodd"  fill="#ffffff"
 d="M13.418274,1.7978516 C13.418274,1.7978516 4.581665,1.7978516 4.581665,1.7978516 C3.0466309,1.7978516 1.7979126,3.0458984 1.7979126,4.5810547 C1.7979126,4.5810547 1.7979126,7.5214844 1.7979126,7.5214844 C1.7979126,7.5214844 1.7979126,13.417969 1.7979126,13.417969 C1.7979126,14.953125 3.0466309,16.201172 4.581665,16.201172 C4.581665,16.201172 13.418274,16.201172 13.418274,16.201172 C14.953186,16.201172 16.201965,14.953125 16.201965,13.417969 C16.201965,13.417969 16.201965,7.5214844 16.201965,7.5214844 C16.201965,7.5214844 16.201965,4.5810547 16.201965,4.5810547 C16.201965,3.0458984 14.953186,1.7978516 13.418274,1.7978516 ZM14.2948,3.4082031 C14.2948,3.4082031 14.609924,3.4072266 14.609924,3.4072266 C14.609924,3.4072266 14.609924,3.7167969 14.609924,3.7167969 C14.609924,3.7167969 14.609924,5.7978516 14.609924,5.7978516 C14.609924,5.7978516 12.20166,5.805664 12.20166,5.805664 C12.20166,5.805664 12.1935425,3.415039 12.1935425,3.415039 C12.1935425,3.415039 14.2948,3.4082031 14.2948,3.4082031 ZM8.999939,6.5908203 C10.99707,6.5908203 11.409851,8.46582 11.409851,9.0 C11.409851,10.327148 10.328125,11.40918 8.999939,11.40918 C7.6712036,11.40918 6.590271,10.327148 6.590271,9.0 C6.590271,8.46582 7.0025024,6.5908203 8.999939,6.5908203 ZM14.623596,13.243164 C14.623596,14.004883 14.004456,14.623047 13.243164,14.623047 C13.243164,14.623047 4.7316284,14.623047 4.7316284,14.623047 C3.970459,14.623047 3.3513184,14.004883 3.3513184,13.243164 C3.3513184,13.243164 3.3513184,7.3964844 3.3513184,7.3964844 C3.3513184,7.3964844 5.3513794,7.3964844 5.3513794,7.3964844 C5.1659546,7.8535156 5.0614624,8.4765625 5.0614624,9.0 C5.0614624,11.170898 6.828003,12.938477 8.999939,12.938477 C11.171936,12.938477 12.938416,11.170898 12.938416,9.0 C12.938416,8.4765625 12.833496,7.8535156 12.647949,7.3964844 C12.647949,7.3964844 14.623596,7.3964844 14.623596,7.3964844 C14.623596,7.3964844 14.623596,13.243164 14.623596,13.243164 Z"/>
</svg>