<svg xmlns="http://www.w3.org/2000/svg"
 xmlns:xlink="http://www.w3.org/1999/xlink"
 width="15px" height="14px"  viewBox="0 0 15 14">
<path fill-rule="evenodd"  fill="#ffffff"
 d="M1.4122925,12.787109 C1.4122925,12.787109 3.8095703,12.787109 3.8095703,12.787109 C3.8095703,12.787109 3.8095703,4.796875 3.8095703,4.796875 C3.8095703,4.796875 1.4122925,4.796875 1.4122925,4.796875 C1.4122925,4.796875 1.4122925,12.787109 1.4122925,12.787109 ZM10.750122,4.5214844 C9.586853,4.5214844 8.545837,4.946289 7.807617,5.883789 C7.807617,5.883789 7.807617,4.772461 7.807617,4.772461 C7.807617,4.772461 5.4021606,4.772461 5.4021606,4.772461 C5.4021606,4.772461 5.4021606,12.787109 5.4021606,12.787109 C5.4021606,12.787109 7.807617,12.787109 7.807617,12.787109 C7.807617,12.787109 7.807617,8.452148 7.807617,8.452148 C7.807617,7.5371094 8.646973,6.6435547 9.698608,6.6435547 C10.750122,6.6435547 11.008362,7.5371094 11.008362,8.431641 C11.008362,8.431641 11.008362,12.787109 11.008362,12.787109 C11.008362,12.787109 13.40564,12.787109 13.40564,12.787109 C13.40564,12.787109 13.40564,8.25293 13.40564,8.25293 C13.40564,5.102539 11.913757,4.5214844 10.750122,4.5214844 ZM2.5999756,1.5996094 C3.2627563,1.5996094 3.8000488,2.1367188 3.8000488,2.7998047 C3.8000488,3.461914 3.2627563,4.0 2.5999756,4.0 C1.9372559,4.0 1.4000244,3.461914 1.4000244,2.7998047 C1.4000244,2.1367188 1.9372559,1.5996094 2.5999756,1.5996094 Z"/>
</svg>