<svg xmlns="http://www.w3.org/2000/svg"
 xmlns:xlink="http://www.w3.org/1999/xlink"
 width="17px" height="15px"  viewBox="0 0 17 15">
<path fill-rule="evenodd"  fill="#ffffff"
 d="M1.7999268,4.598633 C2.9968872,3.6435547 4.6986694,1.5458984 6.02594,1.5458984 C7.3515625,1.5458984 7.677002,3.1113281 7.85791,4.5322266 C8.040466,5.9521484 8.561768,9.058594 9.26239,9.058594 C9.964539,9.058594 11.564148,6.310547 11.472839,5.2490234 C11.382385,4.1884766 10.225281,4.3466797 9.5876465,4.6523438 C10.172974,2.5273438 11.5251465,1.4003906 13.25415,1.4003906 C14.983276,1.4003906 15.399902,2.6210938 15.399902,4.1210938 C15.399902,6.404297 10.771423,13.399414 7.975708,13.399414 C6.2458496,13.399414 5.817505,10.850586 5.467346,9.589844 C5.1152954,8.329102 4.4263916,5.0234375 3.6202393,4.8115234 C3.307434,4.758789 2.4242554,5.4609375 2.4242554,5.4609375 C2.4242554,5.4609375 1.7999268,4.598633 1.7999268,4.598633 Z"/>
</svg>